<?xml version="1.0" encoding="UTF-8" standalone="no"?>
<!-- Created with Inkscape (http://www.inkscape.org/) -->

<svg
   width="32"
   height="32"
   viewBox="0 0 8.4666665 8.4666666"
   version="1.1"
   id="svg1"
   inkscape:version="1.4 (86a8ad7, 2024-10-11)"
   sodipodi:docname="CheckboxToolIcon.svg"
   xmlns:inkscape="http://www.inkscape.org/namespaces/inkscape"
   xmlns:sodipodi="http://sodipodi.sourceforge.net/DTD/sodipodi-0.dtd"
   xmlns="http://www.w3.org/2000/svg"
   xmlns:svg="http://www.w3.org/2000/svg">
  <sodipodi:namedview
     id="namedview1"
     pagecolor="#ffffff"
     bordercolor="#666666"
     borderopacity="1.0"
     inkscape:showpageshadow="2"
     inkscape:pageopacity="0.0"
     inkscape:pagecheckerboard="0"
     inkscape:deskcolor="#d1d1d1"
     inkscape:document-units="mm"
     showgrid="true"
     inkscape:zoom="32"
     inkscape:cx="16.09375"
     inkscape:cy="16.453125"
     inkscape:window-width="2560"
     inkscape:window-height="1411"
     inkscape:window-x="-9"
     inkscape:window-y="-9"
     inkscape:window-maximized="1"
     inkscape:current-layer="layer1"
     showguides="true">
    <inkscape:grid
       id="grid1"
       units="mm"
       originx="0"
       originy="0"
       spacingx="0.26458333"
       spacingy="0.26458333"
       empcolor="#0099e5"
       empopacity="0.30196078"
       color="#0099e5"
       opacity="0.14901961"
       empspacing="5"
       enabled="true"
       visible="true" />
    <sodipodi:guide
       position="0.52916663,4.2498699"
       orientation="0,-1"
       id="guide1"
       inkscape:locked="false" />
    <sodipodi:guide
       position="4.2333331,3.274219"
       orientation="1,0"
       id="guide2"
       inkscape:locked="false" />
    <sodipodi:guide
       position="6.7118059,2.4856758"
       orientation="0,-1"
       id="guide4"
       inkscape:locked="false" />
  </sodipodi:namedview>
  <defs
     id="defs1" />
  <g
     inkscape:label="Layer 1"
     inkscape:groupmode="layer"
     id="layer1">
    <path
       style="font-weight:bold;font-size:2.17871px;line-height:1.25;font-family:Arial;-inkscape-font-specification:'Arial Bold';stroke-width:0.264583"
       d="m 7.6822979,4.2253375 -0.294679,0.053191 q -0.014894,-0.088297 -0.068085,-0.1329779 -0.052127,-0.04468 -0.1361694,-0.04468 -0.1117014,0 -0.1787223,0.077659 -0.065957,0.076595 -0.065957,0.2574452 0,0.2010626 0.067021,0.2840408 0.068085,0.082978 0.1819138,0.082978 0.085106,0 0.1393608,-0.047872 0.054255,-0.048936 0.076595,-0.1670202 l 0.2936152,0.05 Q 7.651447,4.8402273 7.5216606,4.9434182 7.3918741,5.046609 7.1737904,5.046609 q -0.2478708,0 -0.3957423,-0.156382 -0.1468076,-0.156382 -0.1468076,-0.4329761 0,-0.2797855 0.1478715,-0.4351037 0.1478714,-0.156382 0.3999975,-0.156382 0.2063817,0 0.3276576,0.089361 0.1223396,0.088297 0.1755308,0.2702113 z"
       id="path3" />
    <path
       style="font-weight:bold;font-size:2.17871px;line-height:1.25;font-family:Arial;-inkscape-font-specification:'Arial Bold';stroke-width:0.264583"
       d="m 6.019538,4.6956114 0.2916695,0.040698 C 6.2729095,4.8455289 6.2246735,4.904057 6.141696,4.9615035 c -0.082269,0.056737 -0.1854599,0.085106 -0.3095726,0.085106 -0.1964527,0 -0.3418418,-0.064184 -0.4361675,-0.192552 C 5.3214883,4.7512212 5.2842545,4.6214348 5.2842545,4.4646982 c 0,-0.1872329 0.048936,-0.3336859 0.1468076,-0.439359 0.097872,-0.1063823 0.2216298,-0.1595735 0.3712743,-0.1595735 0.1680841,0 0.3007074,0.055673 0.3978699,0.1670203 0.097162,0.1106376 0.1436161,0.2804947 0.1393608,0.5095713 H 5.5906355 c 0.00213,0.088652 0.02624,0.1578004 0.07234,0.2074455 0.046099,0.048936 0.1035451,0.073404 0.1723394,0.073404 0.046808,0 0.08617,-0.012766 0.1180844,-0.038298 0.031915,-0.025532 0.042592,-0.036694 0.066139,-0.089297 z M 6.049995,4.3593792 C 6.047865,4.2728552 6.021394,4.206219 5.97884,4.1615384 5.936287,4.1161484 5.881414,4.0944864 5.8204212,4.0944864 c -0.065248,0 -0.1191484,0.023759 -0.1617012,0.071276 -0.042553,0.047517 -0.063474,0.1120559 -0.062765,0.1936158 z"
       id="path2"
       sodipodi:nodetypes="cccscscsccccsscccsscc" />
    <path
       style="font-weight:bold;font-size:2.17871px;line-height:1.25;font-family:Arial;-inkscape-font-specification:'Arial Bold';stroke-width:0.264583"
       d="m 4.239464,3.4429089 v 0.6044066 c 0.099554,-0.1127653 0.2474457,-0.1794832 0.3857968,-0.1794832 0.071006,0 0.1350571,0.012766 0.1921544,0.038298 0.057097,0.025532 0.09992,0.058156 0.1284689,0.097872 0.029281,0.039716 0.049045,0.083687 0.059294,0.1319141 0.01098,0.048227 0.01647,0.1230489 0.01647,0.2244667 V 5.0231444 H 4.7131028 V 4.4263395 c 0,-0.118439 -0.00586,-0.1936158 -0.017568,-0.2255305 -0.011712,-0.031915 -0.032575,-0.057092 -0.062588,-0.075531 -0.029281,-0.019149 -0.066248,-0.028723 -0.1109005,-0.028723 -0.051241,0 -0.096992,0.012057 -0.1372531,0.03617 -0.040261,0.024113 -0.069907,0.060638 -0.08894,0.1095738 -0.018301,0.048227 -0.027451,0.1198574 -0.027451,0.2148923 v 0.565954 l -0.2992426,0.00103 -0.00103,-1.5833367 z"
       id="path1"
       sodipodi:nodetypes="ccssccsccsscsscscccc" />
    <path
       style="font-weight:bold;font-size:2.17871px;line-height:1.25;font-family:Arial;-inkscape-font-specification:'Arial Bold';stroke-width:0.264583"
       d="M 3.6971201,4.2253375 3.402441,4.2785285 Q 3.387548,4.1902315 3.334356,4.1455506 q -0.052127,-0.04468 -0.1361694,-0.04468 -0.1117015,0 -0.1787223,0.077659 -0.065957,0.076595 -0.065957,0.2574452 0,0.2010626 0.067021,0.2840408 0.068085,0.082978 0.1819138,0.082978 0.085106,0 0.1393608,-0.047872 0.054255,-0.048936 0.076595,-0.1670202 l 0.2936152,0.05 Q 3.6662692,4.8402273 3.5364828,4.9434182 3.4066963,5.046609 3.1886126,5.046609 q -0.2478708,0 -0.3957423,-0.156382 -0.1468076,-0.156382 -0.1468076,-0.4329761 0,-0.2797855 0.1478715,-0.4351037 0.1478714,-0.156382 0.3999975,-0.156382 0.2063817,0 0.3276576,0.089361 0.1223396,0.088297 0.1755308,0.2702113 z"
       id="text1" />
    <rect
       style="opacity:1;fill:none;fill-opacity:1;stroke:#000000;stroke-width:0.265112;stroke-linecap:round;stroke-linejoin:round;stroke-opacity:1"
       id="rect12"
       width="1.3223879"
       height="1.3223879"
       x="0.66172266"
       y="3.5721393" />
  </g>
</svg>
