<?xml version="1.0" encoding="UTF-8" standalone="no"?>
<!-- Created with Inkscape (http://www.inkscape.org/) -->

<svg
   width="32"
   height="32"
   viewBox="0 0 8.4666665 8.4666666"
   version="1.1"
   id="svg1"
   inkscape:version="1.4 (86a8ad7, 2024-10-11)"
   sodipodi:docname="HeadlineToolIcon.svg"
   xmlns:inkscape="http://www.inkscape.org/namespaces/inkscape"
   xmlns:sodipodi="http://sodipodi.sourceforge.net/DTD/sodipodi-0.dtd"
   xmlns="http://www.w3.org/2000/svg"
   xmlns:svg="http://www.w3.org/2000/svg">
  <sodipodi:namedview
     id="namedview1"
     pagecolor="#ffffff"
     bordercolor="#666666"
     borderopacity="1.0"
     inkscape:showpageshadow="2"
     inkscape:pageopacity="0.0"
     inkscape:pagecheckerboard="0"
     inkscape:deskcolor="#d1d1d1"
     inkscape:document-units="mm"
     showgrid="true"
     inkscape:zoom="20.5776"
     inkscape:cx="23.204844"
     inkscape:cy="12.367817"
     inkscape:window-width="2560"
     inkscape:window-height="1411"
     inkscape:window-x="-9"
     inkscape:window-y="-9"
     inkscape:window-maximized="1"
     inkscape:current-layer="layer1">
    <inkscape:grid
       id="grid1"
       units="mm"
       originx="0"
       originy="0"
       spacingx="0.26458333"
       spacingy="0.26458333"
       empcolor="#0099e5"
       empopacity="0.30196078"
       color="#0099e5"
       opacity="0.14901961"
       empspacing="5"
       enabled="true"
       visible="true" />
  </sodipodi:namedview>
  <defs
     id="defs1" />
  <g
     inkscape:label="Layer 1"
     inkscape:groupmode="layer"
     id="layer1">
    <path
       style="font-weight:bold;font-size:3.68925px;line-height:1.25;font-family:Arial;-inkscape-font-specification:'Arial Bold';text-align:end;text-anchor:end;stroke-width:0.264583"
       d="M 8.008912,5.2858002 H 7.6008943 V 5.0419276 q -0.1016136,0.142259 -0.2407461,0.2126068 -0.1375691,0.068784 -0.2782649,0.068784 -0.2860812,0 -0.4908717,-0.2298031 Q 6.3877844,4.862149 6.3877844,4.4494416 q 0,-0.4220873 0.1985373,-0.6409473 Q 6.784859,3.588071 7.0881365,3.588071 q 0.2782649,0 0.4814921,0.2313663 V 2.994023 H 8.008912 Z M 6.8364475,4.4197397 q 0,0.2657587 0.073474,0.3845683 0.1063034,0.1719615 0.2970243,0.1719615 0.1516388,0 0.2579422,-0.1281894 0.1063034,-0.1297528 0.1063034,-0.3861316 0,-0.2860814 -0.1031768,-0.4111442 -0.1031766,-0.1266262 -0.264195,-0.1266262 -0.1563286,0 -0.2626321,0.1250629 -0.1047401,0.1234995 -0.10474,0.3704987 z"
       id="path7" />
    <path
       style="font-weight:bold;font-size:3.68925px;line-height:1.25;font-family:Arial;-inkscape-font-specification:'Arial Bold';text-align:end;text-anchor:end;stroke-width:0.264583"
       d="M 4.9811288,4.1392021 4.5824909,4.0672909 q 0.067221,-0.2407461 0.2313663,-0.3564292 0.164145,-0.1156831 0.4877452,-0.1156831 0.2938978,0 0.4377201,0.070348 0.1438222,0.068784 0.2016638,0.1766513 0.059405,0.1063034 0.059405,0.3923847 l -0.00469,0.5127578 q 0,0.21886 0.020323,0.3236002 0.021886,0.1031769 0.079728,0.2219867 H 5.6611582 q -0.017196,-0.043772 -0.042209,-0.1297526 -0.010943,-0.039082 -0.015633,-0.051588 -0.1125566,0.10943 -0.240746,0.164145 -0.1281894,0.054715 -0.273575,0.054715 -0.2563789,0 -0.404891,-0.1391325 -0.146949,-0.1391324 -0.146949,-0.3517393 0,-0.1406958 0.067221,-0.2501258 0.067221,-0.1109933 0.1875944,-0.1688349 0.1219362,-0.059405 0.350176,-0.1031768 0.3079673,-0.057841 0.426777,-0.1078667 v -0.043772 q 0,-0.1266261 -0.062532,-0.1797778 -0.062532,-0.054715 -0.2360561,-0.054715 -0.1172465,0 -0.1829045,0.046899 -0.065658,0.045335 -0.1063022,0.1610172 z m 0.5877955,0.3564291 q -0.084417,0.028139 -0.2673219,0.067221 -0.1829045,0.039082 -0.2391828,0.076601 -0.085981,0.060968 -0.085981,0.1547652 0,0.092234 0.068784,0.1594553 0.068784,0.067221 0.175088,0.067221 0.1188097,0 0.2266765,-0.078165 0.079728,-0.059405 0.1047401,-0.1453855 0.017196,-0.056278 0.017196,-0.2141702 z"
       id="path6" />
    <path
       style="font-weight:bold;font-size:3.68925px;line-height:1.25;font-family:Arial;-inkscape-font-specification:'Arial Bold';text-align:end;text-anchor:end;stroke-width:0.264583"
       d="m 3.7479337,4.7443362 0.4377201,0.073474 q -0.084417,0.2407461 -0.267322,0.3673723 -0.1813411,0.1250629 -0.4549161,0.1250629 -0.4330302,0 -0.6409473,-0.2829548 -0.164145,-0.2266764 -0.164145,-0.5721626 0,-0.4127075 0.2157334,-0.6456371 0.2157335,-0.2344929 0.5455868,-0.2344929 0.3704988,0 0.584669,0.2454359 0.2141701,0.2438726 0.2047905,0.7488139 H 3.1085498 q 0.00469,0.1954108 0.1063034,0.3048408 0.1016135,0.1078667 0.2532523,0.1078667 0.1031769,0 0.1735247,-0.056278 0.070348,-0.056278 0.1063035,-0.1813411 z M 3.7729463,4.300363 Q 3.7682564,4.1096421 3.6744592,4.0111551 3.5806621,3.9111048 3.4462195,3.9111048 3.3023972,3.9111048 3.2086,4.015845 3.114803,4.1205851 3.116366,4.300363 Z"
       id="path5" />
    <path
       style="font-weight:bold;font-size:3.68925px;line-height:1.25;font-family:Arial;-inkscape-font-specification:'Arial Bold';text-align:end;text-anchor:end;stroke-width:0.264583"
       d="M 0.52868195,5.2911508 V 2.9190122 h 0.4673891 V 3.8526575 H 1.9119009 V 2.9190122 H 2.37929 V 5.2911508 H 1.9119009 V 4.2539469 H 0.99607105 v 1.0372039 z"
       id="text5" />
  </g>
</svg>
