<?xml version="1.0" encoding="UTF-8" standalone="no"?>
<!-- Created with Inkscape (http://www.inkscape.org/) -->

<svg
   width="32"
   height="32"
   viewBox="0 0 8.4666665 8.4666666"
   version="1.1"
   id="svg1"
   inkscape:version="1.4 (86a8ad7, 2024-10-11)"
   sodipodi:docname="RadioButtonToolIcon.svg"
   xmlns:inkscape="http://www.inkscape.org/namespaces/inkscape"
   xmlns:sodipodi="http://sodipodi.sourceforge.net/DTD/sodipodi-0.dtd"
   xmlns="http://www.w3.org/2000/svg"
   xmlns:svg="http://www.w3.org/2000/svg">
  <sodipodi:namedview
     id="namedview1"
     pagecolor="#ffffff"
     bordercolor="#666666"
     borderopacity="1.0"
     inkscape:showpageshadow="2"
     inkscape:pageopacity="0.0"
     inkscape:pagecheckerboard="0"
     inkscape:deskcolor="#d1d1d1"
     inkscape:document-units="mm"
     showgrid="true"
     inkscape:zoom="16"
     inkscape:cx="29.8125"
     inkscape:cy="-1.40625"
     inkscape:window-width="2560"
     inkscape:window-height="1411"
     inkscape:window-x="-9"
     inkscape:window-y="-9"
     inkscape:window-maximized="1"
     inkscape:current-layer="layer1">
    <inkscape:grid
       id="grid1"
       units="mm"
       originx="0"
       originy="0"
       spacingx="0.26458333"
       spacingy="0.26458333"
       empcolor="#0099e5"
       empopacity="0.30196078"
       color="#0099e5"
       opacity="0.14901961"
       empspacing="5"
       enabled="true"
       visible="true" />
  </sodipodi:namedview>
  <defs
     id="defs1" />
  <g
     inkscape:label="Layer 1"
     inkscape:groupmode="layer"
     id="layer1">
    <path
       id="path7"
       style="font-weight:bold;font-size:2.23577px;line-height:1.25;font-family:Arial;-inkscape-font-specification:'Arial Bold';stroke-width:0.264583"
       d="M 7.9375 3.8442098 C 7.8404652 3.8497023 7.7517252 3.8741669 7.6708496 3.9181071 C 7.5791479 3.9683246 7.50816 4.041358 7.4579427 4.1366984 C 7.4077254 4.2320389 7.3824951 4.330397 7.3824951 4.4322876 C 7.3824951 4.5654731 7.4077252 4.6786446 7.4579427 4.7718018 C 7.5081602 4.864231 7.5814994 4.9346072 7.6775675 4.9826416 C 7.7624209 5.0247492 7.8505435 5.0482431 7.9426676 5.0534383 L 7.9426676 4.8022909 C 7.8791822 4.7939303 7.8245138 4.7640308 7.7788534 4.7128906 C 7.7242694 4.6517563 7.6972046 4.5638149 7.6972046 4.4488241 C 7.6972046 4.3338337 7.7242694 4.2458922 7.7788534 4.1847575 C 7.8245139 4.1336173 7.8791823 4.1037178 7.9426676 4.0953573 L 7.9426676 3.8442098 C 7.9409732 3.8442938 7.9391895 3.8441142 7.9375 3.8442098 z " />
    <path
       style="font-weight:bold;font-size:2.23577px;line-height:1.25;font-family:Arial;-inkscape-font-specification:'Arial Bold';stroke-width:0.264583"
       d="m 6.8678167,5.0285444 v -1.159369 h 0.2819586 v 1.159369 z"
       id="path6"
       sodipodi:nodetypes="ccccc" />
    <path
       style="font-weight:bold;font-size:2.23577px;line-height:1.25;font-family:Arial;-inkscape-font-specification:'Arial Bold';stroke-width:0.264583"
       d="m 6.8740178,3.7109393 0.00103,-0.2714356 0.2716233,0.00103 -0.00103,0.2714356 z"
       id="path3"
       sodipodi:nodetypes="ccccc" />
    <path
       style="font-weight:bold;font-size:2.23577px;line-height:1.25;font-family:Arial;-inkscape-font-specification:'Arial Bold';stroke-width:0.264583"
       d="m 6.610895,5.0285444 -0.2632255,-0.00413 0.00207,-0.196141 C 6.2941623,4.916202 6.2226196,4.97396 6.1578459,5.0067107 c -0.064045,0.032023 -0.1288186,0.048034 -0.1943198,0.048034 -0.1331855,0 -0.2474485,-0.053493 -0.342789,-0.1604777 -0.094613,-0.1077129 -0.141919,-0.2576375 -0.141919,-0.449774 0,-0.1965032 0.046215,-0.3457001 0.138644,-0.4475907 0.092429,-0.1026182 0.2092395,-0.1539273 0.3504307,-0.1539273 0.1295466,0 0.3132461,0.059703 0.3771645,0.1922635 l 0.00292,-0.5997954 0.2629144,-0.00731 z M 5.7921316,4.4237512 c 0,0.1237243 0.017103,0.2132424 0.051309,0.2685544 0.04949,0.080057 0.11863,0.1200853 0.2074201,0.1200853 0.070596,0 0.1306382,-0.029839 0.1801279,-0.089518 0.04949,-0.060407 0.074235,-0.1502887 0.074235,-0.269646 0,-0.1331855 -0.024017,-0.2288899 -0.072051,-0.2871131 -0.048034,-0.058951 -0.1095322,-0.088426 -0.1844947,-0.088426 -0.072779,0 -0.1339133,0.029112 -0.183403,0.087335 -0.048762,0.057495 -0.073143,0.1437381 -0.073143,0.2587284 z"
       id="path2"
       sodipodi:nodetypes="ccccscscsccccscscscscs" />
    <path
       style="font-weight:bold;font-size:2.23577px;line-height:1.25;font-family:Arial;-inkscape-font-specification:'Arial Bold';stroke-width:0.264583"
       d="M 4.5460547,4.2228812 4.2676751,4.1726637 Q 4.3146176,4.0045443 4.4292445,3.9237596 4.5438713,3.842975 4.76985,3.842975 q 0.2052367,0 0.3056717,0.049126 0.100435,0.048034 0.1408273,0.1233604 0.041484,0.074235 0.041484,0.2740128 l -0.00328,0.3580725 q 0,0.1528359 0.014192,0.2259787 0.015284,0.072051 0.055676,0.1550192 H 5.0209375 q -0.012009,-0.030567 -0.029476,-0.09061 -0.00764,-0.027292 -0.010917,-0.036026 -0.078601,0.076418 -0.1681195,0.1146269 -0.089518,0.038209 -0.1910448,0.038209 -0.1790362,0 -0.2827463,-0.09716 -0.1026183,-0.09716 -0.1026183,-0.245629 0,-0.098252 0.046942,-0.1746695 Q 4.3298996,4.459776 4.4139598,4.419384 4.4991108,4.3779 4.6584971,4.347333 4.873559,4.306941 4.956527,4.272007 V 4.24144 q 0,-0.088426 -0.043667,-0.1255438 -0.043667,-0.038209 -0.1648444,-0.038209 -0.081876,0 -0.1277271,0.032751 -0.045851,0.031659 -0.074234,0.112443 z m 0.4104734,0.2489041 q -0.058951,0.01965 -0.1866781,0.046942 -0.1277271,0.027292 -0.1670277,0.053493 -0.060043,0.042576 -0.060043,0.1080768 0,0.064409 0.048034,0.1113518 0.048034,0.046942 0.1222686,0.046942 0.082968,0 0.1582943,-0.054584 0.055676,-0.041484 0.073143,-0.1015267 0.012009,-0.039301 0.012009,-0.1495608 z"
       id="path1" />
    <path
       style="font-weight:bold;font-size:2.23577px;line-height:1.25;font-family:Arial;-inkscape-font-specification:'Arial Bold';stroke-width:0.264583"
       d="M 2.641163,5.0285444 V 3.4281349 h 0.6801195 q 0.2565459,0 0.3722644,0.043667 0.1168103,0.042576 0.1866781,0.1528359 0.069868,0.1102601 0.069868,0.2521791 0,0.180128 -0.1058934,0.2980299 -0.1058934,0.1168102 -0.3165885,0.1473774 0.1048017,0.061134 0.1724861,0.1342772 0.068776,0.073143 0.1844947,0.2598209 L 4.0800033,5.0285444 H 3.6935469 L 3.4599264,4.6802971 Q 3.3354744,4.493619 3.2896236,4.4455849 3.2437729,4.3964591 3.1924637,4.3789921 3.1411545,4.3604335 3.0298027,4.3604335 H 2.9643016 V 5.0285444 Z M 2.9643016,4.1049793 h 0.239079 q 0.2325288,0 0.290388,-0.01965 0.057859,-0.01965 0.09061,-0.067684 0.03275,-0.048034 0.03275,-0.1200853 0,-0.080785 -0.043667,-0.1299104 -0.042576,-0.050218 -0.121177,-0.063318 -0.039301,-0.00546 -0.2358038,-0.00546 H 2.9643016 Z"
       id="text1" />
    <circle
       style="opacity:1;fill:none;fill-opacity:1;stroke:#000000;stroke-width:0.265112;stroke-linecap:round;stroke-linejoin:round;stroke-opacity:1"
       id="path4"
       cx="1.3038073"
       cy="4.1731029"
       r="0.66119397" />
    <circle
       style="opacity:1;fill:#000000;fill-opacity:1;stroke:none;stroke-width:0.265111;stroke-linecap:round;stroke-linejoin:round;stroke-opacity:1"
       id="path5"
       cx="1.305071"
       cy="4.1757998"
       r="0.25432366" />
  </g>
</svg>
