<?xml version="1.0" encoding="UTF-8" standalone="no"?>
<!-- Created with Inkscape (http://www.inkscape.org/) -->

<svg
   width="32"
   height="32"
   viewBox="0 0 8.4666665 8.4666666"
   version="1.1"
   id="svg1"
   inkscape:version="1.4 (86a8ad7, 2024-10-11)"
   sodipodi:docname="RadioButtonToolIcon.svg"
   xmlns:inkscape="http://www.inkscape.org/namespaces/inkscape"
   xmlns:sodipodi="http://sodipodi.sourceforge.net/DTD/sodipodi-0.dtd"
   xmlns="http://www.w3.org/2000/svg"
   xmlns:svg="http://www.w3.org/2000/svg">
  <sodipodi:namedview
     id="namedview1"
     pagecolor="#ffffff"
     bordercolor="#666666"
     borderopacity="1.0"
     inkscape:showpageshadow="2"
     inkscape:pageopacity="0.0"
     inkscape:pagecheckerboard="0"
     inkscape:deskcolor="#d1d1d1"
     inkscape:document-units="mm"
     showgrid="true"
     inkscape:zoom="16"
     inkscape:cx="27.96875"
     inkscape:cy="10.21875"
     inkscape:window-width="2560"
     inkscape:window-height="1411"
     inkscape:window-x="-9"
     inkscape:window-y="-9"
     inkscape:window-maximized="1"
     inkscape:current-layer="layer1">
    <inkscape:grid
       id="grid1"
       units="mm"
       originx="0"
       originy="0"
       spacingx="0.26458333"
       spacingy="0.26458333"
       empcolor="#0099e5"
       empopacity="0.30196078"
       color="#0099e5"
       opacity="0.14901961"
       empspacing="5"
       enabled="true"
       visible="true" />
  </sodipodi:namedview>
  <defs
     id="defs1" />
  <g
     inkscape:label="Layer 1"
     inkscape:groupmode="layer"
     id="layer1">
    <path
       style="font-weight:bold;font-size:2.20755px;line-height:1.25;font-family:Arial;-inkscape-font-specification:'Arial Bold';text-align:end;letter-spacing:0.0449792px;text-anchor:end;stroke-width:0.264582"
       d="M 2.6406956,4.9574853 V 3.3772762 H 2.943587 V 4.9574853 Z M 3.525363,4.1619912 3.2504972,4.1124076 q 0.04635,-0.1659974 0.1595299,-0.2457624 0.1131801,-0.079765 0.3363065,-0.079765 0.2026462,0 0.3018135,0.048506 0.099167,0.047428 0.1390498,0.1218033 0.04096,0.073298 0.04096,0.2705542 l -0.00323,0.353553 q 0,0.1509067 0.014013,0.2231264 0.015091,0.071142 0.054973,0.1530625 H 3.9942518 q -0.011857,-0.030181 -0.029103,-0.089466 -0.00755,-0.026948 -0.010779,-0.035571 -0.077609,0.075453 -0.1659974,0.1131801 -0.088388,0.037727 -0.1886334,0.037727 -0.1767765,0 -0.2791775,-0.095934 -0.1013231,-0.095934 -0.1013231,-0.2425287 0,-0.097012 0.04635,-0.1724649 0.04635,-0.076531 0.1293487,-0.1164137 0.084077,-0.04096 0.2414508,-0.071142 0.2123473,-0.039883 0.2942681,-0.074375 v -0.030181 q 0,-0.08731 -0.043116,-0.1239591 -0.043116,-0.037727 -0.1627637,-0.037727 -0.080843,0 -0.1261149,0.032337 -0.045272,0.031259 -0.073298,0.1110239 z m 0.4052924,0.2457624 q -0.058207,0.019402 -0.1843218,0.04635 -0.1261149,0.026948 -0.1649195,0.052817 -0.059285,0.042038 -0.059285,0.1067126 0,0.063596 0.047428,0.1099464 0.047428,0.04635 0.1207254,0.04635 0.081921,0 0.1562963,-0.053895 0.054973,-0.04096 0.07222,-0.1002452 0.011857,-0.038804 0.011857,-0.147673 z M 4.5587813,4.9574853 V 3.3772762 h 0.3028914 v 0.569134 q 0.1401277,-0.15953 0.3319949,-0.15953 0.2091136,0 0.3460076,0.1519846 0.1368939,0.1509068 0.1368939,0.4343959 0,0.2931902 -0.1401277,0.4516423 -0.1390497,0.158452 -0.3384622,0.158452 -0.098089,0 -0.194023,-0.048506 Q 4.9091002,4.8852657 4.8401146,4.7893321 V 4.9574853 Z M 4.8595169,4.3603258 q 0,0.1778544 0.056051,0.2630089 0.078687,0.1207254 0.2091136,0.1207254 0.1002452,0 0.1703091,-0.085155 0.071142,-0.086232 0.071142,-0.2705543 0,-0.1961787 -0.071142,-0.2824112 -0.071142,-0.08731 -0.182166,-0.08731 -0.1088685,0 -0.1810881,0.085155 -0.07222,0.084077 -0.07222,0.2565412 z m 1.7685498,0.2328275 0.3018134,0.050662 q -0.058207,0.165997 -0.1843218,0.2533073 -0.125037,0.086232 -0.3136704,0.086232 -0.2985798,0 -0.4419412,-0.1951008 -0.11318,-0.1562963 -0.11318,-0.3945133 0,-0.284567 0.1487509,-0.4451749 0.1487509,-0.1616858 0.3761889,-0.1616858 0.2554636,0 0.4031366,0.1692311 0.147673,0.1681532 0.1412056,0.5163166 H 6.1872034 q 0.00323,0.1347382 0.073297,0.2101916 0.070064,0.074375 0.1746207,0.074375 0.071142,0 0.1196475,-0.038805 0.048506,-0.038804 0.073298,-0.125037 z m 0.017246,-0.3061251 q -0.00323,-0.1315044 -0.067908,-0.1994125 -0.064674,-0.068986 -0.1573742,-0.068986 -0.099167,0 -0.1638416,0.07222 -0.064674,0.07222 -0.063596,0.1961787 z M 7.2378683,4.9574853 V 3.3772762 h 0.3028914 v 1.5802091 z"
       id="text3"
       aria-label="label" />
    <circle
       style="opacity:1;fill:none;fill-opacity:1;stroke:#000000;stroke-width:0.265112;stroke-linecap:round;stroke-linejoin:round;stroke-opacity:1"
       id="path4"
       cx="1.3038073"
       cy="4.1731029"
       r="0.66119397" />
    <circle
       style="opacity:1;fill:#000000;fill-opacity:1;stroke:none;stroke-width:0.265111;stroke-linecap:round;stroke-linejoin:round;stroke-opacity:1"
       id="path5"
       cx="1.305071"
       cy="4.1757998"
       r="0.25432366" />
  </g>
</svg>
