<?xml version="1.0" encoding="UTF-8" standalone="no"?>
<!-- Created with Inkscape (http://www.inkscape.org/) -->

<svg
   width="32"
   height="32"
   viewBox="0 0 8.4666665 8.4666666"
   version="1.1"
   id="svg1"
   inkscape:version="1.4 (86a8ad7, 2024-10-11)"
   sodipodi:docname="TabsToolIcon.svg"
   xmlns:inkscape="http://www.inkscape.org/namespaces/inkscape"
   xmlns:sodipodi="http://sodipodi.sourceforge.net/DTD/sodipodi-0.dtd"
   xmlns="http://www.w3.org/2000/svg"
   xmlns:svg="http://www.w3.org/2000/svg">
  <sodipodi:namedview
     id="namedview1"
     pagecolor="#ffffff"
     bordercolor="#666666"
     borderopacity="1.0"
     inkscape:showpageshadow="2"
     inkscape:pageopacity="0.0"
     inkscape:pagecheckerboard="0"
     inkscape:deskcolor="#d1d1d1"
     inkscape:document-units="mm"
     showgrid="true"
     inkscape:zoom="45.254834"
     inkscape:cx="12.031864"
     inkscape:cy="17.158388"
     inkscape:window-width="2560"
     inkscape:window-height="1411"
     inkscape:window-x="-9"
     inkscape:window-y="-9"
     inkscape:window-maximized="1"
     inkscape:current-layer="layer1"
     showguides="true">
    <inkscape:grid
       id="grid1"
       units="mm"
       originx="0"
       originy="0"
       spacingx="0.26458333"
       spacingy="0.26458333"
       empcolor="#0099e5"
       empopacity="0.30196078"
       color="#0099e5"
       opacity="0.14901961"
       empspacing="5"
       enabled="true"
       visible="true" />
    <sodipodi:guide
       position="0.52916663,4.2498699"
       orientation="0,-1"
       id="guide1"
       inkscape:locked="false" />
    <sodipodi:guide
       position="4.2333331,3.274219"
       orientation="1,0"
       id="guide2"
       inkscape:locked="false" />
  </sodipodi:namedview>
  <defs
     id="defs1">
    <clipPath
       clipPathUnits="userSpaceOnUse"
       id="clipPath11">
      <rect
         style="opacity:0.491252;fill:none;stroke:none;stroke-width:0.264583;stroke-linecap:round;stroke-linejoin:round;paint-order:markers fill stroke"
         id="rect12"
         width="0.28525391"
         height="1.7776692"
         x="7.9209628"
         y="3.3610351" />
    </clipPath>
  </defs>
  <g
     inkscape:label="Layer 1"
     inkscape:groupmode="layer"
     id="layer1">
    <path
       style="fill:none;stroke:#000000;stroke-width:0.264583px;stroke-linecap:butt;stroke-linejoin:round;stroke-opacity:1;paint-order:markers fill stroke"
       d="m 0.66207089,5.2930349 c 0,0 0.001877,-1.8647168 -0.002439,-2.1222429 -0.004315,-0.257526 0.13803176,-0.4022459 0.39858831,-0.398907 0.2605566,0.00334 5.0424295,-7.132e-4 5.2973214,0.00207 0.2548918,0.00278 0.3929321,0.1398126 0.3900741,0.3960921 -0.00286,0.2562797 -1.053e-4,2.113891 -1.053e-4,2.113891"
       id="path1"
       sodipodi:nodetypes="czzzzc" />
    <path
       style="fill:none;stroke:#000000;stroke-width:0.264583px;stroke-linecap:butt;stroke-linejoin:round;stroke-opacity:1;paint-order:markers fill stroke"
       d="m 6.7439989,5.5384691 c 0,0 -2.498e-4,-2.1180345 0.00376,-2.3693003 0.00401,-0.2512657 0.1260905,-0.3894777 0.3934875,-0.3894777 0.2673975,0 0.8434122,-0.00313 1.0591328,-7.093e-4"
       id="path6"
       sodipodi:nodetypes="czsc" />
    <path
       style="fill:none;stroke:#000000;stroke-width:0.264583px;stroke-linecap:butt;stroke-linejoin:miter;stroke-opacity:1"
       d="m 6.6118244,5.4028609 1.5888843,0.00207"
       id="path7"
       sodipodi:nodetypes="cc" />
    <path
       style="fill:none;stroke:#000000;stroke-width:0.264583px;stroke-linecap:butt;stroke-linejoin:miter;stroke-opacity:1"
       d="m 0.27731308,5.1573079 0.51273624,0.00207"
       id="path8"
       sodipodi:nodetypes="cc" />
    <path
       style="font-weight:bold;font-size:2.20964px;line-height:1.25;font-family:Arial;-inkscape-font-specification:'Arial Bold';letter-spacing:0.0343958px;stroke-width:0.264583"
       d="M 4.2309128,5.029007 V 3.4473017 H 4.5340909 V 4.0169746 Q 4.6743513,3.8572935 4.8664,3.8572935 q 0.2093116,0 0.3463352,0.1521286 0.1370236,0.1510496 0.1370236,0.4348071 0,0.2934678 -0.1402604,0.4520699 -0.1391814,0.1586021 -0.3387827,0.1586021 -0.098182,0 -0.1942066,-0.048552 -0.094945,-0.049631 -0.1639967,-0.145655 V 5.029007 Z M 4.531933,4.4312821 q 0,0.1780227 0.056104,0.2632579 0.078762,0.1208397 0.2093116,0.1208397 0.1003401,0 0.1704703,-0.085235 0.071209,-0.086314 0.071209,-0.2708104 0,-0.1963645 -0.071209,-0.2826785 -0.071209,-0.087393 -0.1823385,-0.087393 -0.1089715,0 -0.1812595,0.085235 -0.072288,0.084156 -0.072288,0.2567843 z"
       id="path5" />
    <path
       style="font-weight:bold;font-size:2.20964px;line-height:1.25;font-family:Arial;-inkscape-font-specification:'Arial Bold';letter-spacing:0.0343958px;stroke-width:0.264583"
       d="M 3.207142,4.2327597 2.9320159,4.1831291 q 0.046394,-0.1661545 0.159681,-0.245995 0.1132872,-0.079841 0.3366249,-0.079841 0.202838,0 0.3020992,0.048552 0.099261,0.047473 0.1391814,0.1219186 0.040999,0.073367 0.040999,0.2708104 l -0.00324,0.3538877 q 0,0.1510496 0.014026,0.2233376 0.015105,0.071209 0.055025,0.1532075 H 3.6764747 q -0.011868,-0.03021 -0.029131,-0.089551 -0.00755,-0.026973 -0.010789,-0.035604 -0.077683,0.075525 -0.1661545,0.1132872 -0.088472,0.037762 -0.1888121,0.037762 -0.1769438,0 -0.2794417,-0.096024 Q 2.900727,4.8628524 2.900727,4.7161185 q 0,-0.097103 0.046394,-0.1726281 0.046394,-0.076604 0.1294711,-0.116524 0.084156,-0.040999 0.2416794,-0.071209 0.2125484,-0.03992 0.2945468,-0.074446 v -0.03021 q 0,-0.087393 -0.043157,-0.1240765 -0.043157,-0.037762 -0.1629178,-0.037762 -0.080919,0 -0.1262343,0.032368 -0.045315,0.031289 -0.073367,0.1111288 z m 0.4056761,0.2459951 q -0.058262,0.019421 -0.1844963,0.046394 -0.1262344,0.026973 -0.1650757,0.052867 -0.059341,0.042078 -0.059341,0.1068136 0,0.063657 0.047473,0.1100505 0.047473,0.046394 0.1208397,0.046394 0.081998,0 0.1564443,-0.053946 0.055025,-0.040999 0.072288,-0.1003401 0.011868,-0.038841 0.011868,-0.1478129 z"
       id="path4" />
    <path
       style="font-weight:bold;font-size:2.20964px;line-height:1.25;font-family:Arial;-inkscape-font-specification:'Arial Bold';letter-spacing:0.0343958px;stroke-width:0.264583"
       d="M 2.1186357,5.029007 V 3.7148753 H 1.649303 V 3.4473017 H 2.9062515 V 3.7148753 H 2.4379977 V 5.029007 Z"
       id="text1" />
    <path
       id="path3"
       style="font-weight:bold;font-size:2.20964px;line-height:1.25;font-family:Arial;-inkscape-font-specification:'Arial Bold';letter-spacing:0.0343958px;stroke-width:0.264583"
       d="M 7.6770508 3.4385498 L 7.6770508 3.705717 L 8.1462728 3.705717 L 8.1462728 5.0198486 L 8.1938151 5.0198486 L 8.1938151 3.4385498 L 7.6770508 3.4385498 z " />
  </g>
</svg>
